<svg id="e36aa498-aa79-4cbb-831e-eaea56ca7fc4" data-name="Layer 1" xmlns="http://www.w3.org/2000/svg" viewBox="0 0 3395.19707 449.22803"><defs><style>.f2c65193-496f-4fdd-aeb7-c9a740603902{fill:#fff;}.a8140f2a-9731-469f-be98-1273cd2ac50c{fill:#fdfdfb;}</style></defs><path class="f2c65193-496f-4fdd-aeb7-c9a740603902" d="M2100.18506,463.94727V45.19043h183.11572q30.471,0,54.55713,7.25488,24.08423,7.25684,40.773,20.749a89.886,89.886,0,0,1,25.5376,32.79248q8.84911,19.303,8.85107,43.67529a88.54577,88.54577,0,0,1-5.80371,31.77637,91.77276,91.77276,0,0,1-15.96094,27.13379,92.9257,92.9257,0,0,1-24.08691,20.02392,82.24822,82.24822,0,0,1-29.89014,10.44678v5.22363a106.8362,106.8362,0,0,1,38.45117,9.72168,102.552,102.552,0,0,1,30.32569,21.47461,95.2702,95.2702,0,0,1,19.8789,30.76172,99.98427,99.98427,0,0,1,7.10987,37.87012q0,27.57421-10.01221,49.76953a103.17059,103.17059,0,0,1-28.87451,37.72558q-18.86793,15.52881-45.70654,23.94141-26.84547,8.42139-60.21631,8.416ZM2187.8252,218.729h65.875q35.69457,0,54.41259-13.78418,18.71778-13.77978,18.71778-39.32177,0-25.24732-17.12159-39.32227-17.12694-14.072-48.75341-14.07471H2187.8252Zm78.06347,178.18213q38.01417,0,57.89453-15.37988,19.87427-15.37939,19.87891-44.98145,0-29.01562-20.459-43.82031-20.45946-14.79932-59.3457-14.7998H2187.8252V396.91113Z" transform="translate(-1327.45625 -21.68408)"/><path class="f2c65193-496f-4fdd-aeb7-c9a740603902" d="M2477.0376,21.68408h84.44775V463.94727H2477.0376Z" transform="translate(-1327.45625 -21.68408)"/><path class="f2c65193-496f-4fdd-aeb7-c9a740603902" d="M2707.04932,468.88086q-23.2207,0-42.36914-6.82031a97.08761,97.08761,0,0,1-33.08252-19.44336,87.32375,87.32375,0,0,1-21.62012-30.3252q-7.69263-17.69824-7.69043-39.75781,0-43.81494,31.92187-68.3418,31.91969-24.51855,91.99317-28.0039l77.4834-4.64258V245.42773q0-20.02441-13.78467-30.90625-13.78638-10.88232-40.19238-10.88281-22.92848,0-37.72608,7.54541-14.80005,7.54981-20.02344,22.05518h-77.77343a91.67656,91.67656,0,0,1,12.91357-39.90235,100.40772,100.40772,0,0,1,29.165-30.47119q18.28272-12.62328,43.09473-19.29785,24.81225-6.67236,54.99267-6.6748,31.62744,0,56.44385,7.3999,24.81153,7.40039,41.64355,21.33008a91.30216,91.30216,0,0,1,25.68262,34.09814q8.84839,20.17309,8.85108,45.70654V463.94727h-81.83643V422.1582h-5.22363q-12.48047,22.05762-37,34.38868Q2738.386,468.87793,2707.04932,468.88086Zm27.85888-63.55371a82.31118,82.31118,0,0,0,27.27881-4.35352,68.25781,68.25781,0,0,0,21.76465-12.1875,57.297,57.297,0,0,0,14.51025-18.2832,49.90378,49.90378,0,0,0,5.22364-22.63477V324.36133l-64.71436,4.06347q-53.97729,3.77492-53.97705,38.59571,0,17.99706,13.9292,28.14941Q2712.85327,405.33155,2734.9082,405.32715Z" transform="translate(-1327.45625 -21.68408)"/><path class="f2c65193-496f-4fdd-aeb7-c9a740603902" d="M3144.55273,256.74512q-4.35351-22.92114-20.31445-36.71-15.9624-13.77979-43.23926-13.78467-34.2451,0-52.6709,24.667-18.43212,24.66943-18.42773,72.25928,0,48.17578,18.42773,73.27539,18.42482,25.10449,52.6709,25.10254,26.11816,0,42.36914-12.334,16.24806-12.33105,21.18457-36.12988h78.93457q-2.61327,26.98974-13.49414,48.75391a115.45349,115.45349,0,0,1-29.166,37.1455q-18.28125,15.38526-43.38477,23.65137-25.1045,8.27051-56.44336,8.27051-37.43555,0-66.60058-11.17285-29.165-11.168-49.04346-32.502-19.88087-21.32958-30.32568-52.52636Q2924.582,343.52,2924.582,303.17676q0-39.75439,10.30225-70.80811,10.29711-31.04883,30.32568-52.23584,20.02368-21.18017,49.18848-32.21191,29.165-11.02588,66.60058-11.02783,31.62744,0,57.02442,8.416,25.39014,8.41992,43.38379,24.08643a117.40675,117.40675,0,0,1,28.73047,37.87109q10.73143,22.19971,13.3496,49.47852Z" transform="translate(-1327.45625 -21.68408)"/><path class="f2c65193-496f-4fdd-aeb7-c9a740603902" d="M3459.30176,143.85791h96.05664L3433.47461,281.12207l130.29883,182.8252H3463.65527l-93.44433-130.00879-23.21582,23.7959V463.94727h-84.44727V21.68408h84.44727V268.93359h5.22363Z" transform="translate(-1327.45625 -21.68408)"/><path class="f2c65193-496f-4fdd-aeb7-c9a740603902" d="M3770.56934,45.19043q32.21192,0,58.91015,10.44727a134.1275,134.1275,0,0,1,45.85156,29.31,130.49068,130.49068,0,0,1,29.7461,45.70606q10.58936,26.84546,10.5918,59.3457,0,32.21192-10.88282,58.76514a130.85343,130.85343,0,0,1-30.76074,45.56152,137.42881,137.42881,0,0,1-47.30273,29.30957q-27.42334,10.30518-60.50586,10.30274h-82.707V463.94727h-87.63965V45.19043Zm-87.05957,217.64941h63.55371q38.01416,0,58.76562-18.57324,20.74365-18.56835,20.749-53.97705,0-35.98023-20.60449-54.55713-20.60888-18.56835-58.62011-18.57275h-63.84375Z" transform="translate(-1327.45625 -21.68408)"/><path class="f2c65193-496f-4fdd-aeb7-c9a740603902" d="M4100.11914,470.91211q-36.85693,0-66.165-11.31738a132.41606,132.41606,0,0,1-49.624-32.93848q-20.31738-21.61524-31.05176-52.6709-10.73877-31.04883-10.7373-70.22754,0-38.88427,10.88281-69.793,10.88232-30.90673,31.34082-52.52636a135.635,135.635,0,0,1,49.624-33.08252q29.165-11.46021,65.73047-11.46289,36.56542,0,65.72949,11.46289a135.627,135.627,0,0,1,49.624,33.08252q20.45946,21.62256,31.34179,52.52636,10.88234,30.90675,10.88282,69.793,0,39.17578-10.73731,70.22754-10.74024,31.05615-31.05176,52.6709a132.4935,132.4935,0,0,1-49.624,32.93848Q4136.96973,470.91211,4100.11914,470.91211Zm0-69.06738q33.95361,0,52.38086-25.68262,18.4248-25.68311,18.42773-72.4043,0-22.92187-4.78808-41.209-4.78857-18.282-13.92969-30.76074a62.73632,62.73632,0,0,0-22.20019-19.15284q-13.05909-6.67236-29.89063-6.6748-16.834,0-30.03613,6.6748a61.07506,61.07506,0,0,0-22.2002,19.15284q-8.99706,12.4812-13.78418,30.76074-4.78857,18.28271-4.78808,41.209,0,47.01123,18.28222,72.54981Q4065.87549,401.84716,4100.11914,401.84473Z" transform="translate(-1327.45625 -21.68408)"/><path class="f2c65193-496f-4fdd-aeb7-c9a740603902" d="M4438.665,470.91211q-36.85693,0-66.165-11.31738a132.416,132.416,0,0,1-49.624-32.93848q-20.3174-21.61524-31.05176-52.6709-10.73877-31.04883-10.73731-70.22754,0-38.88427,10.88282-69.793,10.88232-30.90673,31.34082-52.52636a135.635,135.635,0,0,1,49.624-33.08252q29.165-11.46021,65.73047-11.46289,36.56542,0,65.72949,11.46289a135.62688,135.62688,0,0,1,49.624,33.08252q20.45948,21.62256,31.3418,52.52636,10.88232,30.90675,10.88281,69.793,0,39.17578-10.7373,70.22754-10.74024,31.05615-31.05176,52.6709a132.4935,132.4935,0,0,1-49.624,32.93848Q4475.51563,470.91211,4438.665,470.91211Zm0-69.06738q33.95361,0,52.38086-25.68262,18.4248-25.68311,18.42773-72.4043,0-22.92187-4.78808-41.209-4.78859-18.282-13.92969-30.76074a62.73627,62.73627,0,0,0-22.2002-19.15284q-13.05907-6.67236-29.89062-6.6748-16.834,0-30.03613,6.6748a61.07506,61.07506,0,0,0-22.2002,19.15284q-8.99708,12.4812-13.78418,30.76074-4.78857,18.28271-4.78808,41.209,0,47.01123,18.28222,72.54981Q4404.42139,401.84716,4438.665,401.84473Z" transform="translate(-1327.45625 -21.68408)"/><path class="f2c65193-496f-4fdd-aeb7-c9a740603902" d="M4638.20605,21.68408h84.44727V463.94727h-84.44727Z" transform="translate(-1327.45625 -21.68408)"/><path class="a8140f2a-9731-469f-be98-1273cd2ac50c" d="M1872.77836,422.21612c-10.27286,3.685-20.90737-4.25183-22.481-1.95487-1.3,1.89622,4.49618,9.34428,11.72924,14.66154,5.22926,3.84132,17.58406,11.26008,39.99667,10.20443a18.82392,18.82392,0,0,0,16.76305-12.54052l10.68337-29.91931a384.23044,384.23044,0,0,1-86.99182-113.38259,381.51091,381.51091,0,0,1-31.26817-87.38279c3.37217-5.96236,6.29469-11.40669,8.78714-16.22544q14.83747,14.07508,29.66516,28.15015a11.246,11.246,0,0,0,16.27434-.78194h0c9.69615,3.90974,20.43816,2.385,27.36821-3.90974,10.78115-9.80369,10.87887-30.04638-3.9586-42.07862-1.2218-14.66154-1.85715-22.22689-3.079-36.88843q9.8672-3.035,19.73444-6.06987a32.55012,32.55012,0,0,0,0-19.54872,31.91849,31.91849,0,0,0-6.842-11.72924c-5.20976-10.46833-17.59385-31.31706-42.02976-43.98463a98.71071,98.71071,0,0,0-14.06532-5.806,151.43765,151.43765,0,0,0-56.31008-7.87813q6.34846,4.39847,12.70667,8.79692c-12.76532-2.69771-26.82085-5.09245-42.02976-6.842-16.157-1.85712-31.22909-2.71727-44.96206-2.93231q3.41612,3.41614,6.842,6.84206a296.95011,296.95011,0,0,0-49.84924,2.9323c-20.53594,2.96163-73.28818,12.7751-150.52517,65.48823-75.46784,51.49133-121.6908,83.043-118.26978,123.15695,2.297,26.86,28.13062,72.52575,62.55592,89.92413,5.04357,2.55109,12.521,5.63,17.59385,13.68408,8.20069,13.01945,2.17968,29.71408-6.842,63.53335-2.688,10.08714-6.16762,22.36374-10.56609,36.38014a20.45709,20.45709,0,0,0,17.89686,26.49828q96.0331,7.7706,98.23233-3.25488,1.58343-7.88792-44.96206-25.41334a79.90523,79.90523,0,0,1,0-24.4359c5.07289-32.28469,29.15691-42.5869,35.1877-68.42053,5.20972-22.32464-2.43381-43.32976-9.77436-57.66874a203.0345,203.0345,0,0,0,97.74361-32.25539c-7.12551,34.98245-.58646,56.81837,6.84206,70.3754,15.38483,28.07194,48.90113,46.68236,47.89437,70.37541-.17593,4.03681-1.45637,10.86908-.44961,21.85546,1.0654,11.63151,3.56763,15.54125,1.42705,20.17429-2.00374,4.32025-7.90746,8.95329-25.41334,9.77436q-5.13154,5.8793-3.90975,9.77437,3.812,12.1398,69.398,4.88718,7.81462-17.59386,15.639-35.18771a309.04286,309.04286,0,0,0-1.95488-57.66873c-5.47361-42.147-16.74348-58.72438-7.81948-84.05951,3.66538-10.40969,7.321-12.56981,21.50359-32.25539,9.14879-12.69689,16.89013-24.65094,23.36075-35.393-3.16688,8.25935-6.69542,16.81192-10.65408,25.6186a490.814,490.814,0,0,1-22.481,43.98462,162.78584,162.78584,0,0,0,12.70667,39.09745c26.75242,56.55444,79.231,81.5182,99.69849,89.92413C1881.72193,415.54021,1878.35955,420.21239,1872.77836,422.21612ZM1801.42552,99.66219c5.47362-4.25186,13.6059-1.70073,15.639-.97744,11.15252,3.98793,17.35928,17.154,14.66154,20.52616-2.28722,2.87366-10.51722-2.08195-12.70667.97743-2.86388,3.99771,8.36686,14.02622,5.86462,17.59386-2.121,3.03005-13.56682,1.1045-20.52616-5.86462C1795.60977,123.15,1793.42032,105.87866,1801.42552,99.66219Z" transform="translate(-1327.45625 -21.68408)"/><path class="a8140f2a-9731-469f-be98-1273cd2ac50c" d="M1462.25518,334.24686a153.42258,153.42258,0,0,1-61.57848-58.64617c-3.91952,4.98493-9.012,11.915-15.639,21.5036l-.00977.00978c-12.67735,18.34647-14.86681,36.7125-15.62921,41.04254-1.73983,9.85257-9.618,23.70283-35.823,41.95154-5.78642,4.027-6.13829,13.30289-6.11875,22.54946.088,30.5058,35.12906,58.7146,48.77406,52.79134,2.688-1.16315,4.55486-3.66539,5.86462-6.84206,15.92244,5.09247,32.27494,8.93379,35.1877,3.90975,3.99771-6.89091-23.3314-21.39609-25.41334-42.02976C1389.02566,382.26831,1425.77725,354.861,1462.25518,334.24686Z" transform="translate(-1327.45625 -21.68408)"/></svg>